<?xml version="1.0" standalone="no"?>
<!DOCTYPE svg PUBLIC "-//W3C//DTD SVG 1.1//EN" "http://www.w3.org/Graphics/SVG/1.1/DTD/svg11.dtd" >
<svg xmlns="http://www.w3.org/2000/svg">
<metadata>
Created by FontPrep 20130207 at Mon Jun  2 20:41:05 2014
 By Chris W. Burke
Copyright Copr. 1999, Luc[as] de Groot &#60;www.FontFabrik.com&#62;. All rights reserved. Published by FontShop International &#60;www.fontfont.de&#62;
</metadata>
<defs>
<font id="e302a81c72da7e3cedb86b10d11b1cd3" horiz-adv-x='1024' >
  <font-face 
    font-family="TheSans-B8ExtraBoldItalic"
    font-weight="700"
    font-style="italic"
    font-stretch="normal"
    units-per-em="2048"
    panose-1="2 0 8 3 0 0 0 0 0 0"
    ascent="1638"
    descent="-410"
    x-height="1018"
    cap-height="1382"
    bbox="-319 -508 2125 1780"
    underline-thickness="251"
    underline-position="-375"
    slope="-11"
    unicode-range="U+0020-FFFD"
  />
<missing-glyph 
 />
    <glyph glyph-name=".notdef" unicode="&#xfffd;" 
 />
    <glyph glyph-name=".null" horiz-adv-x="0" 
 />
    <glyph glyph-name="nonmarkingreturn" horiz-adv-x="681" 
 />
    <glyph glyph-name="space" unicode=" " horiz-adv-x="446" 
 />
    <glyph glyph-name="exclam" unicode="!" horiz-adv-x="649" 
d="M469 157q0 -75 -57 -128q-58 -53 -136 -53t-126 48t-48 122t58 129t135 55q78 0 126 -49t48 -124zM713 1456l-242 -1044h-268l151 1044h359z" />
    <glyph glyph-name="quotedbl" unicode="&#x22;" horiz-adv-x="864" 
d="M569 1442l-141 -553h-229l67 553h303zM975 1442l-139 -553h-230l68 553h301z" />
    <glyph glyph-name="numbersign" unicode="#" 
d="M756 786h-232l-67 -235h231zM1184 1004l-41 -218h-162l-70 -235h140l-41 -215h-162l-100 -336h-224l101 336h-232l-100 -336h-225l100 336h-141l41 215h163l70 235h-141l41 218h164l96 327h223l-96 -327h231l96 327h226l-97 -327h140z" />
    <glyph glyph-name="dollar" unicode="$" 
d="M756 1067q-102 0 -150 -33q-49 -33 -49 -80t44 -80q45 -34 107 -60t126 -62t107 -105q44 -70 44 -166q0 -165 -119 -285t-297 -153l-41 -217h-217l39 205q-121 0 -227 22l55 279q126 -43 238 -43t171 35q58 35 58 88t-43 88q-43 36 -105 62q-63 26 -125 62t-106 105
q-43 70 -43 170q0 147 110 263t279 145l37 188h219l-32 -174q110 -9 188 -23l-53 -266q-113 35 -215 35z" />
    <glyph glyph-name="percent" unicode="%" horiz-adv-x="1540" 
d="M1098 166q57 0 95 60t38 140q0 79 -64 78q-55 0 -94 -62t-39 -139t64 -77zM457 887q57 -1 95 61t38 140t-64 77q-57 0 -96 -62t-39 -139t66 -77zM1456 389q0 -193 -117 -305t-254 -111q-137 0 -205 66t-69 186q0 186 117 299t251 113q133 1 205 -63t72 -185zM1518 1225
l-1256 -1274l-164 151l1256 1274zM813 1110q0 -192 -117 -304t-254 -112q-138 0 -206 66t-68 186q0 188 118 300t252 112t204 -64t71 -184z" />
    <glyph glyph-name="ampersand" unicode="&#x26;" horiz-adv-x="1601" 
d="M393 393q0 -65 42 -107t124 -42q135 0 256 80q-178 178 -262 290q-160 -125 -160 -221zM811 1194q0 88 -88 88q-51 0 -88 -38t-37 -96t55 -159q51 37 79 62t54 65t25 78zM494 -27q-214 1 -320 101t-106 254t91 269q91 114 242 222q-111 172 -110 301q0 156 131 275
q132 119 324 119t282 -76q90 -74 90 -202t-84 -232t-235 -213q94 -121 250 -269q162 190 204 430h301q-20 -162 -99 -322t-191 -290q86 -78 227 -180l-213 -211q-131 88 -248 190q-248 -166 -536 -166z" />
    <glyph glyph-name="quotesingle" unicode="'" horiz-adv-x="456" 
d="M569 1442l-141 -553h-229l67 553h303z" />
    <glyph glyph-name="parenleft" unicode="(" horiz-adv-x="618" 
d="M371 244q0 -312 94 -588l-248 -102q-145 330 -145 683t134 708t394 671l215 -105q-197 -256 -321 -605q-124 -350 -123 -662z" />
    <glyph glyph-name="parenright" unicode=")" horiz-adv-x="618" 
d="M602 928q0 -350 -134 -704q-134 -355 -394 -670l-215 104q197 256 319 605q123 349 123 665t-92 585l248 103q145 -338 145 -688z" />
    <glyph glyph-name="asterisk" unicode="*" horiz-adv-x="786" 
d="M889 1198l-219 -55l186 -92l-145 -177l-136 158l-10 -221l-215 27l84 206l-188 -122l-68 196l217 56l-186 94l147 174l136 -156l6 221l213 -26l-82 -209l190 127z" />
    <glyph glyph-name="plus" unicode="+" 
d="M1106 741l-51 -262h-338l-68 -362h-299l70 362h-338l49 262h338l68 359h299l-70 -359h340z" />
    <glyph glyph-name="comma" unicode="," horiz-adv-x="555" 
d="M230 352q114 0 165 -100q71 -134 -29 -308t-319 -323l-110 129q125 102 154 177q30 75 -23 149q-52 74 -2 175t164 101z" />
    <glyph glyph-name="hyphen" unicode="-" horiz-adv-x="677" 
d="M639 680l-49 -250h-508l49 250h508z" />
    <glyph glyph-name="period" unicode="." horiz-adv-x="565" 
d="M426 172q0 -80 -59 -138t-139 -58t-135 54q-54 56 -54 136t59 138q60 58 140 58t134 -55t54 -135z" />
    <glyph glyph-name="slash" unicode="/" horiz-adv-x="962" 
d="M1184 1550l-1065 -1880h-316l1069 1880h312z" />
    <glyph glyph-name="zero" unicode="0" 
d="M809 937q0 79 -26 117q-27 38 -97 38t-129 -83t-91 -202q-65 -240 -66 -364q-1 -123 26 -161q26 -38 96 -38t129 83t91 201q67 249 67 409zM1137 934q0 -338 -147 -632q-73 -146 -205 -237q-131 -91 -319 -91t-291 98t-103 325q0 338 147 632q74 145 207 237
q134 92 320 92q392 0 391 -424z" />
    <glyph glyph-name="one" unicode="1" 
d="M1012 281l-54 -281h-921l53 281h322l135 718l-293 -104l-2 299l438 137h246l-201 -1050h277z" />
    <glyph glyph-name="two" unicode="2" 
d="M1075 1020q0 -148 -89 -284q-89 -134 -347 -337l-125 -98v-4q143 6 344 6h135l-59 -303h-926l51 260l181 148q291 238 382 342t91 194q0 53 -41 87t-121 34q-145 0 -289 -84l-8 285q195 90 406 90t313 -94t102 -242z" />
    <glyph glyph-name="three" unicode="3" 
d="M1085 1057q1 -111 -71 -202t-203 -126l-4 -4q94 -18 146 -86q53 -68 53 -158q1 -180 -152 -331q-78 -78 -222 -127t-318 -49t-277 30l74 266q103 -37 243 -37q140 1 224 59t84 140q0 127 -222 127q-127 0 -233 -14l45 239h70q194 0 308 56t113 151q0 106 -172 107
q-139 0 -286 -64v258q187 66 389 66t306 -79t105 -222z" />
    <glyph glyph-name="four" unicode="4" 
d="M731 1016h-2l-362 -463q70 4 276 4zM1092 1331l-150 -774h164l-53 -281h-164l-51 -276h-308l52 276h-555l20 269l615 786h430z" />
    <glyph glyph-name="five" unicode="5" 
d="M590 836q219 0 325 -88t107 -234q0 -244 -199 -391t-485 -148q-172 0 -272 25l55 281q125 -37 252 -37t211 58t84 159q0 131 -267 131q-104 0 -215 -17l146 756h796l-57 -293h-498l-38 -202h55z" />
    <glyph glyph-name="six" unicode="6" 
d="M383 392q1 -166 159 -165q82 0 146 70t64 170q0 133 -144 133q-100 0 -162 -63t-63 -145zM718 854q170 0 264 -88q93 -88 93 -238q0 -244 -166 -400t-422 -155q-205 1 -311 105t-106 311q0 289 141 544t402 360q144 58 294 58t211 -12l-47 -266q-100 18 -174 19
q-268 0 -405 -244q-31 -51 -48 -90h2q102 96 272 96z" />
    <glyph glyph-name="seven" unicode="7" 
d="M383 1024h-178l59 307h932l-51 -270q-326 -461 -608 -1061h-371q127 260 296 551t302 479q-197 -6 -381 -6z" />
    <glyph glyph-name="eight" unicode="8" 
d="M723 394q0 79 -152 149q-115 -55 -159 -105t-43 -103q0 -52 39 -82q40 -30 120 -30t138 46q57 46 57 125zM821 1020q0 96 -129 96q-86 0 -134 -44t-48 -114t129 -135q98 47 140 93t42 104zM1143 1063q0 -223 -256 -367q164 -109 164 -262q0 -205 -172 -333
q-171 -128 -391 -128t-334 81q-114 82 -113 226q0 144 78 234t207 158q-135 98 -136 239q0 183 157 315t369 132t320 -79t107 -216z" />
    <glyph glyph-name="nine" unicode="9" 
d="M815 944q0 160 -143 160q-98 0 -160 -72t-63 -168q0 -133 143 -133q90 0 157 64q66 64 66 149zM1133 940q0 -259 -109 -495q-62 -132 -154 -233t-244 -167q-152 -65 -314 -65t-249 14l54 274q81 -26 209 -26t239 72t162 186q18 39 25 57h-2q-106 -82 -263 -82t-257 85
q-99 85 -99 243q0 223 160 389t420 166q422 0 422 -418z" />
    <glyph glyph-name="colon" unicode=":" horiz-adv-x="616" 
d="M471 172q0 -80 -58 -138q-57 -58 -139 -58t-137 54q-55 56 -55 135t60 138t140 59t134 -55q55 -55 55 -135zM580 738q0 -79 -60 -138t-138 -59q-79 0 -135 55q-57 55 -57 134t60 138q60 60 139 60t135 -56t56 -134z" />
    <glyph glyph-name="semicolon" unicode=";" horiz-adv-x="616" 
d="M278 352q114 0 164 -100q72 -134 -28 -308t-320 -323l-110 129q125 102 154 177q30 75 -23 149t-2 175t165 101zM580 738q0 -79 -60 -138t-138 -59q-79 0 -135 55q-57 55 -57 134t60 138q60 60 139 60t135 -56t56 -134z" />
    <glyph glyph-name="less" unicode="&#x3c;" 
d="M1087 1016l-534 -408l383 -415l-231 -199l-555 637l753 600z" />
    <glyph glyph-name="equal" unicode="=" 
d="M1034 524l-47 -250h-913l47 250h913zM1114 942l-47 -250h-913l45 250h915z" />
    <glyph glyph-name="greater" unicode="&#x3e;" 
d="M1038 594l-753 -600l-185 217l535 405l-383 416l231 199z" />
    <glyph glyph-name="question" unicode="?" horiz-adv-x="913" 
d="M518 157q0 -75 -57 -128t-135 -53t-126 48t-48 122t57 129t135 55t126 -49t48 -124zM950 1092q0 -104 -47 -188t-113 -135q-66 -52 -128 -101q-151 -118 -134 -256h-301q-14 92 7 168q22 76 64 122q95 105 201 173q107 67 107 155q0 145 -350 164l92 283
q298 -11 450 -117t152 -268z" />
    <glyph glyph-name="at" unicode="@" horiz-adv-x="1968" 
d="M1047 911q-86 -1 -151 -113t-65 -229q0 -66 41 -65q51 0 112 81q60 81 106 238l22 78q-23 10 -65 10zM1847 922q-1 -272 -153 -464t-422 -192q-100 0 -151 48q-50 48 -42 132h-8q-51 -74 -129 -127t-165 -53t-136 60t-49 160q0 196 76 343q144 287 483 287q129 0 235 -47
l-108 -387q-28 -96 -16 -135t65 -39q104 0 172 106t68 276q1 170 -103 270q-104 101 -325 102q-160 0 -292 -67t-215 -175q-175 -227 -175 -508q0 -420 495 -420q174 0 371 64l25 -240q-223 -78 -459 -78q-354 0 -537 166q-182 166 -182 450t125 522q125 236 359 386
t543 150t479 -160q170 -158 171 -430z" />
    <glyph glyph-name="A" unicode="A" horiz-adv-x="1271" 
d="M797 508l-43 315q-10 63 -19 193h-2q-49 -121 -88 -193l-162 -315h314zM1196 0h-334l-35 256h-469l-131 -256h-321l723 1382h356z" />
    <glyph glyph-name="B" unicode="B" horiz-adv-x="1175" 
d="M774 465q0 125 -182 125q-104 0 -133 -2l-60 -326q37 -6 111 -6q125 0 195 61q69 62 69 148zM848 1028q0 106 -160 107q-45 0 -123 -5l-59 -303q27 -2 80 -2q122 -1 192 55t70 148zM1190 1102q0 -258 -244 -365v-2q76 -25 120 -93t44 -157q0 -207 -173 -348t-458 -141
q-35 0 -183 2t-259 2l262 1380q209 10 469 11q422 0 422 -289z" />
    <glyph glyph-name="C" unicode="C" horiz-adv-x="1105" 
d="M893 1106q-279 0 -390 -275q-57 -139 -58 -282q-1 -145 59 -211t198 -66q136 0 263 52l-11 -291q-164 -51 -316 -51q-272 0 -399 109q-151 129 -151 380q0 365 207 633q100 131 260 210t337 79t304 -37l-86 -291q-113 41 -217 41z" />
    <glyph glyph-name="D" unicode="D" horiz-adv-x="1325" 
d="M991 862q0 129 -65 195q-66 66 -221 65q-106 0 -144 -4l-162 -846q57 -8 101 -8q106 0 193 41t141 105q156 182 157 452zM1333 898q0 -244 -96 -446t-300 -332t-482 -130q-172 0 -418 12l262 1376q213 12 475 12t410 -123q149 -124 149 -369z" />
    <glyph glyph-name="E" unicode="E" horiz-adv-x="976" 
d="M1061 1382l-51 -268h-451l-51 -274h428l-51 -260h-426l-60 -306h451l-51 -274h-762l262 1382h762z" />
    <glyph glyph-name="F" unicode="F" horiz-adv-x="929" 
d="M1047 1382l-54 -272h-434l-55 -295h409l-49 -262h-411l-105 -553h-311l262 1382h748z" />
    <glyph glyph-name="G" unicode="G" horiz-adv-x="1345" 
d="M432 549q0 -125 73 -204t226 -79q86 0 156 21l86 450h311l-129 -671q-217 -88 -495 -88t-422 140q-145 142 -146 390q0 383 250 639t639 256q220 0 410 -53l-93 -301q-170 70 -344 69q-244 0 -383 -168t-139 -401z" />
    <glyph glyph-name="H" unicode="H" horiz-adv-x="1363" 
d="M1421 1382l-264 -1382h-311l108 575h-497l-109 -575h-313l262 1382h313l-102 -530h498l102 530h313z" />
    <glyph glyph-name="I" unicode="I" horiz-adv-x="552" 
d="M610 1382l-262 -1382h-311l262 1382h311z" />
    <glyph glyph-name="J" unicode="J" horiz-adv-x="677" 
d="M88 -20q-98 0 -174 16l53 270q47 -18 101 -18q145 0 176 162l184 972h313l-192 -1009q-76 -393 -461 -393z" />
    <glyph glyph-name="K" unicode="K" horiz-adv-x="1200" 
d="M1352 1382l-570 -690l308 -692h-388l-231 649l-123 -649h-311l262 1382h311l-114 -610l458 610h398z" />
    <glyph glyph-name="L" unicode="L" horiz-adv-x="862" 
d="M811 283l-53 -283h-721l262 1382h311l-209 -1099h410z" />
    <glyph glyph-name="M" unicode="M" horiz-adv-x="1757" 
d="M1679 1382l-43 -1382h-327l22 567q6 150 19 324h-2q-72 -186 -140 -326l-274 -565h-297l-59 522q-25 203 -19 369h-2q-57 -195 -106 -350l-172 -541h-322l479 1382h350l74 -606q12 -98 17 -301h2q49 127 135 303l305 604h360z" />
    <glyph glyph-name="N" unicode="N" horiz-adv-x="1363" 
d="M1423 1382l-264 -1382h-366l-207 588q-43 125 -88 305q-18 -154 -49 -313l-109 -580h-303l262 1382h369l198 -540q51 -143 101 -340q18 166 53 354l100 526h303z" />
    <glyph glyph-name="O" unicode="O" horiz-adv-x="1409" 
d="M1087 860q0 119 -59 189t-178 69q-192 0 -312 -176t-120 -405q0 -270 233 -271q188 0 313 176q123 176 123 418zM1419 897q1 -395 -237 -659t-578 -265q-262 1 -392 135t-130 376t106 456q106 213 296 341t430 128q241 0 373 -133t132 -379z" />
    <glyph glyph-name="P" unicode="P" horiz-adv-x="1075" 
d="M817 987q0 145 -170 146q-59 0 -84 -3l-76 -403q18 -4 52 -4q119 -1 199 77t79 187zM1145 1026q0 -238 -182 -404t-451 -165q-47 0 -78 2l-86 -459h-311l262 1382q199 10 401 10t324 -94q121 -94 121 -272z" />
    <glyph glyph-name="Q" unicode="Q" horiz-adv-x="1409" 
d="M1087 860q0 119 -59 189t-178 69q-192 0 -312 -176t-120 -405q0 -270 233 -271q188 0 313 176q123 176 123 418zM1288 -162l-51 -270q-217 -29 -312 -7q-95 23 -231 47t-268 7l51 270q240 26 417 -27t394 -20zM1419 897q1 -395 -237 -659t-578 -265q-262 1 -392 135
t-130 378t104 456q104 213 294 340t431 127q242 0 375 -133t133 -379z" />
    <glyph glyph-name="R" unicode="R" horiz-adv-x="1155" 
d="M831 1006q0 125 -169 124q-57 0 -99 -4l-67 -354q37 -4 77 -4q113 0 186 69q72 69 72 169zM1167 1067q0 -174 -102 -299t-283 -182q41 -84 70 -154l195 -432h-365l-213 541h-18l-103 -541h-311l262 1382q145 10 416 11q452 0 452 -326z" />
    <glyph glyph-name="S" unicode="S" horiz-adv-x="952" 
d="M710 1143q-98 0 -152 -42q-54 -41 -54 -99t40 -99t96 -76t112 -76q55 -42 95 -114t40 -164q0 -211 -168 -355t-426 -145q-158 0 -264 33l55 299q104 -49 227 -49q233 0 234 160q0 49 -39 88t-95 73t-113 73q-56 40 -95 109t-39 161q0 211 147 350t420 139q113 0 242 -20
l-55 -281q-110 35 -208 35z" />
    <glyph glyph-name="T" unicode="T" horiz-adv-x="1015" 
d="M1167 1382l-51 -272h-323l-213 -1110h-312l211 1110h-323l51 272h960z" />
    <glyph glyph-name="U" unicode="U" horiz-adv-x="1351" 
d="M582 -27q-553 0 -447 549l162 860h313l-170 -888q-24 -128 20 -190t174 -62t203 68t101 222l162 850h309l-168 -874q-100 -535 -659 -535z" />
    <glyph glyph-name="V" unicode="V" horiz-adv-x="1275" 
d="M1458 1382l-723 -1382h-362l-199 1382h328l96 -755q16 -127 20 -258h5q61 150 129 276l376 737h330z" />
    <glyph glyph-name="W" unicode="W" horiz-adv-x="1908" 
d="M2052 1382l-600 -1382h-381l-37 651q-6 135 10 316h-2q-49 -168 -108 -305l-289 -662h-358l-72 1382h320l30 -673q4 -106 -10 -291h2q70 205 105 284l307 680h321l51 -667q10 -131 -2 -287h2q49 152 107 291l278 663h326z" />
    <glyph glyph-name="X" unicode="X" horiz-adv-x="1300" 
d="M1421 1382l-526 -688l303 -694h-379l-168 467l-346 -467h-379l561 711l-268 671h348l162 -446l326 446h366z" />
    <glyph glyph-name="Y" unicode="Y" horiz-adv-x="1159" 
d="M1341 1382l-602 -899l-92 -483h-311l92 481l-254 901h330l88 -352q29 -117 45 -221h4q27 53 152 250l204 323h344z" />
    <glyph glyph-name="Z" unicode="Z" horiz-adv-x="1067" 
d="M713 295h239l-55 -295h-893l47 250l559 743q39 49 92 107q-74 -4 -208 -4h-267l54 286h868l-49 -260l-582 -753q-41 -49 -67 -78q29 4 262 4z" />
    <glyph glyph-name="bracketleft" unicode="[" horiz-adv-x="665" 
d="M817 1599l-49 -249h-182l-291 -1524h182l-45 -252h-473l387 2025h471z" />
    <glyph glyph-name="backslash" unicode="\" horiz-adv-x="1011" 
d="M870 -330h-282l-365 1880h281z" />
    <glyph glyph-name="bracketright" unicode="]" horiz-adv-x="665" 
d="M762 1599l-385 -2025h-473l47 252h184l291 1524h-184l49 249h471z" />
    <glyph glyph-name="asciicircum" unicode="^" 
d="M1053 793l-232 -111l-151 481l-328 -481l-188 106l440 594h233z" />
    <glyph glyph-name="underscore" unicode="_" 
d="M999 -248l-47 -252h-1126l47 252h1126z" />
    <glyph glyph-name="grave" unicode="`" horiz-adv-x="755" 
d="M782 1303l-116 -170l-402 219l139 204z" />
    <glyph glyph-name="a" unicode="a" horiz-adv-x="1116" 
d="M756 782q-53 12 -94 13q-90 0 -159 -71q-134 -138 -132 -366q0 -113 59 -112q82 0 184 164t131 317zM301 -25q-248 1 -248 319t172 532t492 214q209 1 389 -34q-164 -858 -186 -1006h-302q29 119 82 264h-4q-172 -289 -395 -289z" />
    <glyph glyph-name="b" unicode="b" horiz-adv-x="1116" 
d="M772 666q0 106 -59 106q-83 0 -185 -163t-131 -316l-10 -57q53 -12 94 -13q90 0 159 71q132 136 132 372zM1090 724q0 -318 -172 -532t-492 -215q-205 0 -387 43l280 1475h308l-76 -393q-29 -145 -111 -350h4q164 291 398 290q248 0 248 -318z" />
    <glyph glyph-name="c" unicode="c" horiz-adv-x="815" 
d="M383 408q0 -156 158 -156q88 0 164 29l-25 -269q-104 -37 -231 -37q-391 0 -392 365q0 299 168 500t441 200q98 1 194 -22l-72 -270q-59 27 -137 26q-129 0 -199 -112t-69 -254z" />
    <glyph glyph-name="d" unicode="d" horiz-adv-x="1116" 
d="M756 782q-53 12 -94 13q-90 0 -159 -71q-134 -138 -132 -366q0 -113 59 -112q82 0 184 164t131 317zM301 -25q-248 1 -248 319t172 532t492 214q37 0 88 -8l86 463h307l-215 -1128q-16 -82 -63 -367h-299q18 90 79 264h-4q-172 -289 -395 -289z" />
    <glyph glyph-name="e" unicode="e" horiz-adv-x="1005" 
d="M694 739q0 72 -81 72t-135 -62t-81 -155q297 6 297 145zM993 780q0 -188 -166 -283t-460 -104q-2 -17 -2 -69q-1 -52 33 -78t154 -25q120 0 277 62l2 -238q-193 -68 -397 -68q-204 1 -290 91q-87 90 -87 264q0 322 174 516t412 192q190 0 270 -74t80 -186z" />
    <glyph glyph-name="f" unicode="f" horiz-adv-x="720" 
d="M-96 -502q-92 0 -178 19l71 256q157 -42 222 31q42 46 67 173l152 801h-154l49 240h152l14 78q37 209 152 313t335 104q94 0 162 -16l-67 -252q-65 17 -125 17t-97 -39t-55 -140l-12 -65h203l-47 -240h-205l-152 -805q-88 -475 -487 -475z" />
    <glyph glyph-name="g" unicode="g" horiz-adv-x="1107" 
d="M756 782q-53 12 -94 13q-90 0 -159 -71q-134 -138 -132 -366q0 -113 59 -112q82 0 184 164t131 317zM250 -506q-168 0 -309 45l71 283q125 -63 285 -64q266 0 311 222q25 117 92 280l-4 2q-174 -287 -395 -287q-248 0 -248 324q0 434 295 636q154 105 366 105t392 -34
l-203 -1051q-45 -233 -201 -347t-452 -114z" />
    <glyph glyph-name="h" unicode="h" horiz-adv-x="1138" 
d="M709 772q-79 0 -181 -162t-135 -331l-51 -279h-307l284 1495h308l-76 -397q-27 -137 -109 -340h4q166 285 402 284q144 0 198 -90t25 -243l-135 -709h-305l121 631q25 141 -43 141z" />
    <glyph glyph-name="i" unicode="i" horiz-adv-x="546" 
d="M537 1018l-195 -1018h-307l194 1018h308zM629 1326q-1 -77 -61 -133t-139 -56t-129 51t-50 127t60 133t138 57t130 -51q51 -51 51 -128z" />
    <glyph glyph-name="j" unicode="j" horiz-adv-x="550" 
d="M-160 -502q-76 0 -141 21l63 264q55 -23 116 -23q60 0 98 46t59 159l205 1053h305l-207 -1075q-41 -215 -159 -330t-339 -115zM635 1326q-1 -77 -61 -133t-140 -56t-130 51t-50 127t60 133t140 57t130 -51q51 -51 51 -128z" />
    <glyph glyph-name="k" unicode="k" horiz-adv-x="1069" 
d="M1122 930l-389 -385l250 -545h-371l-176 494l-94 -494h-307l284 1495h308l-170 -883l420 471z" />
    <glyph glyph-name="l" unicode="l" horiz-adv-x="542" 
d="M627 1495l-285 -1495h-307l284 1495h308z" />
    <glyph glyph-name="m" unicode="m" horiz-adv-x="1726" 
d="M1294 772q-72 0 -174 -157t-137 -336l-51 -279h-305l121 631q25 141 -41 141q-75 0 -177 -157t-137 -336l-51 -279h-307l102 532q55 283 86 486h297q-18 -111 -78 -260h4q170 285 398 284q94 0 151 -51t58 -149q0 -31 -19 -92l2 -2q164 295 402 294q142 0 196 -90
t25 -243l-135 -709h-307l120 631q29 141 -43 141z" />
    <glyph glyph-name="n" unicode="n" horiz-adv-x="1138" 
d="M709 772q-79 0 -181 -162t-135 -331l-51 -279h-307l102 532q55 283 86 486h297q-20 -111 -78 -260h4q166 285 402 284q144 0 198 -90t25 -243l-135 -709h-305l121 631q25 141 -43 141z" />
    <glyph glyph-name="o" unicode="o" horiz-adv-x="1124" 
d="M508 248q120 0 192 116t72 262t-137 146q-117 0 -188 -120t-71 -262t132 -142zM1096 666q0 -303 -186 -496t-441 -193q-219 1 -316 95t-98 274q1 314 187 504t442 190q412 1 412 -374z" />
    <glyph glyph-name="p" unicode="p" horiz-adv-x="1116" 
d="M772 666q0 106 -59 106q-83 0 -185 -163t-131 -316l-10 -53q43 -16 94 -17q90 0 159 71q132 136 132 372zM1090 724q0 -318 -172 -531t-492 -213q-51 0 -88 6l-88 -471h-307l194 1017q55 283 86 486h299q-25 -115 -80 -262h4q162 287 396 286q248 0 248 -318z" />
    <glyph glyph-name="q" unicode="q" horiz-adv-x="1116" 
d="M756 782q-53 12 -94 13q-90 0 -159 -71q-134 -138 -132 -366q0 -113 59 -112q82 0 184 164t131 317zM301 -25q-248 1 -248 319t172 532t492 214q192 1 389 -34l-285 -1491h-307l74 387q31 166 112 362h-4q-172 -289 -395 -289z" />
    <glyph glyph-name="r" unicode="r" horiz-adv-x="720" 
d="M815 1040l-65 -301q-100 35 -208 -107t-161 -417l-39 -215h-307l102 532q55 283 86 486h295q-23 -109 -76 -262h4q82 158 168 229t201 55z" />
    <glyph glyph-name="s" unicode="s" horiz-adv-x="765" 
d="M567 811q-129 0 -129 -84q0 -57 119 -150q45 -36 82 -102t37 -139q0 -143 -125 -251t-358 -108q-106 0 -181 21l54 256q76 -31 149 -31q135 0 135 84q0 63 -116 150q-44 33 -79 96q-36 63 -36 143q0 154 118 249t341 95q94 0 172 -12l-58 -235q-61 18 -125 18z" />
    <glyph glyph-name="t" unicode="t" horiz-adv-x="755" 
d="M393 -23q-168 0 -224 84t-22 277l82 440h-151l49 240h149l58 301l317 61l-69 -362h217l-47 -240h-215l-78 -413q-14 -74 1 -101q27 -48 187 -12l-33 -246q-115 -29 -221 -29z" />
    <glyph glyph-name="u" unicode="u" horiz-adv-x="1136" 
d="M315 -25q-143 -1 -196 91t-25 243l133 709h308l-121 -631q-29 -141 45 -141t176 162t135 331l53 279h307l-102 -533q-55 -283 -86 -485h-299q29 135 78 260h-4q-166 -285 -402 -285z" />
    <glyph glyph-name="v" unicode="v" horiz-adv-x="1034" 
d="M1128 979l-524 -979h-321l-172 1018h323l51 -340q18 -131 25 -270h4l313 655z" />
    <glyph glyph-name="w" unicode="w" horiz-adv-x="1607" 
d="M817 592h-2q-168 -375 -278 -592h-306l-106 1018h319l23 -283q16 -203 18 -327h2q154 350 279 610h287l32 -297q16 -152 23 -315h2q166 397 287 655l297 -80l-482 -981h-344l-39 348q-12 109 -12 244z" />
    <glyph glyph-name="x" unicode="x" horiz-adv-x="1085" 
d="M1159 940l-403 -448l225 -492h-358l-113 303l-307 -371l-260 148l422 457l-220 481h340l117 -305l305 370z" />
    <glyph glyph-name="y" unicode="y" horiz-adv-x="1083" 
d="M-6 -502q-88 0 -158 17l49 264q59 -21 141 -21t156 68t74 215q0 393 -164 977h342q94 -362 94 -680q0 -31 -6 -59h4q174 334 344 782l291 -80q-223 -516 -400 -812q-177 -295 -366 -483t-401 -188z" />
    <glyph glyph-name="z" unicode="z" horiz-adv-x="903" 
d="M649 287h133l-53 -287h-725l43 223l424 518q-53 -4 -176 -4h-139l55 281h707l-46 -223l-413 -510q33 2 190 2z" />
    <glyph glyph-name="braceleft" unicode="{" horiz-adv-x="753" 
d="M479 -426q-213 0 -285 117t-22 377l45 221q25 125 -15 176t-136 55l45 234q100 4 157 50t80 171l25 135q45 256 162 373t329 116h49l-49 -249q-96 0 -137 -45t-70 -193l-24 -135q-59 -311 -250 -340v-4q182 -27 119 -346l-43 -219q-27 -152 -5 -197t117 -45l-47 -252h-45
z" />
    <glyph glyph-name="bar" unicode="|" horiz-adv-x="581" 
d="M621 1563l-392 -2048h-241l389 2048h244z" />
    <glyph glyph-name="braceright" unicode="}" horiz-adv-x="753" 
d="M-51 -426h-47l47 252q96 0 137 46t70 196l43 219q63 324 250 348v4q-176 29 -119 338l26 135q27 152 4 195t-118 43l47 249h47q211 -1 284 -117t21 -372l-27 -135q-26 -125 14 -171t138 -50l-43 -234q-99 -4 -157 -54t-83 -177l-41 -221q-51 -264 -167 -379t-326 -115z
" />
    <glyph glyph-name="asciitilde" unicode="~" 
d="M834 815q-80 0 -138 33t-85 71q-70 103 -117 103q-82 0 -101 -156h-231q8 190 103 292t251 104q80 0 139 -33t85 -71q72 -105 118 -103q82 0 100 153h232q-8 -190 -104 -292t-252 -101z" />
    <glyph glyph-name="nbspace" unicode="&#xa0;" horiz-adv-x="446" 
 />
    <glyph glyph-name="exclamdown" unicode="&#xa1;" horiz-adv-x="649" 
d="M471 606l-152 -1044h-358l242 1044h268zM397 1042q78 0 126 -48t48 -122q0 -76 -57 -130t-135 -54t-126 49t-48 124t57 128t135 53z" />
    <glyph glyph-name="cent" unicode="&#xa2;" 
d="M784 918q-116 0 -196 -90t-80 -214q0 -162 194 -161q106 0 203 43l41 -242q-113 -49 -227 -59l-37 -195h-233l38 197q-153 18 -233 110t-80 252q0 227 134 392t362 206l32 174h234l-33 -164q93 -6 187 -41l-113 -247q-77 39 -193 39z" />
    <glyph glyph-name="sterling" unicode="&#xa3;" 
d="M821 1100q-109 0 -153 -76t-47 -240h297l-46 -241h-268q-2 -164 -129 -281q86 4 141 4h367l-51 -266h-885l39 211q109 73 154 151t49 181h-180l45 241h149q4 88 16 158t49 152q36 82 93 136t161 91t236 37q133 0 268 -33l-94 -262q-102 37 -211 37z" />
    <glyph glyph-name="currency" unicode="&#xa4;" 
d="M772 750q0 117 -121 116q-92 0 -150 -74q-59 -74 -59 -155q-1 -150 115 -150q104 0 160 83q55 84 55 180zM522 262q-57 0 -102 10l-174 -190l-219 178l168 172q-27 53 -27 139q0 201 129 347l-107 184l267 164l106 -193q143 38 246 4l172 191l213 -181l-168 -174
q20 -47 21 -114q0 -199 -129 -359l116 -192l-270 -168l-113 205q-72 -23 -129 -23z" />
    <glyph glyph-name="yen" unicode="&#xa5;" 
d="M1274 1331l-434 -645h229l-37 -194h-305l-20 -105h305l-37 -194h-305l-37 -193h-314l37 193h-305l37 194h305l19 105h-303l36 194h230l-185 645h336l70 -295q12 -53 35 -188h4q37 76 110 190l183 293h346z" />
    <glyph glyph-name="brokenbar" unicode="&#xa6;" horiz-adv-x="581" 
d="M377 289l-148 -774h-241l147 774h242zM621 1563l-144 -754h-241l141 754h244z" />
    <glyph glyph-name="section" unicode="&#xa7;" horiz-adv-x="1075" 
d="M688 516q0 54 -39 108t-151 173q-76 -55 -76 -150q0 -53 42 -109t150 -163q74 49 74 141zM645 1128q0 -36 34 -76t81 -84t94 -96t81 -132q34 -79 34 -177q-1 -98 -59 -192t-150 -154q39 -57 39 -147q1 -170 -145 -293t-404 -123q-113 0 -201 20l68 265q87 -27 173 -27
t131 43q44 43 44 91q0 80 -163 216q-60 51 -112 137q-51 86 -51 192t57 203q56 97 154 160q-43 74 -43 148t29 141q72 163 249 229t441 27l-61 -260q-70 20 -144 21q-176 0 -176 -132z" />
    <glyph glyph-name="dieresis" unicode="&#xa8;" horiz-adv-x="1095" 
d="M466 1483q67 1 112 -47t45 -114q-1 -66 -51 -115q-50 -48 -116 -48t-112 46q-45 46 -45 113t50 116t117 49zM894 1483q67 1 112 -47t45 -114q-1 -66 -51 -115q-50 -48 -116 -48t-112 46q-45 46 -45 113t50 116t117 49z" />
    <glyph glyph-name="copyright" unicode="&#xa9;" horiz-adv-x="1536" 
d="M884 846q-76 0 -118 -66q-41 -66 -41 -156t90 -92q76 0 135 29l8 -196q-98 -45 -216 -45t-194 71q-75 72 -75 201q0 184 116 320t304 137q106 0 176 -35l-76 -201q-33 33 -109 33zM800 201q196 1 344 147t148 346t-132 335q-132 134 -328 134t-344 -147t-148 -348
t132 -334t328 -133zM1526 704q0 -298 -222 -514t-516 -217q-294 0 -488 195q-194 196 -194 492t222 514t514 217t488 -195t196 -492z" />
    <glyph glyph-name="ordfeminine" unicode="&#xaa;" horiz-adv-x="845" 
d="M565 1206q-86 0 -140 -89t-54 -182t41 -93q59 0 128 100t87 215l6 41q-45 8 -68 8zM791 553l-46 -242h-675l45 242h676zM311 623q-193 0 -193 234t132 391q131 157 362 157q164 0 297 -25q-121 -629 -135 -739h-237q29 98 51 166h-2q-111 -184 -275 -184z" />
    <glyph glyph-name="guillemotleft" unicode="&#xab;" horiz-adv-x="1101" 
d="M612 905l-221 -307l111 -313l-258 -105l-146 434l285 404zM1094 893l-232 -295l129 -297l-254 -108l-168 419l303 394z" />
    <glyph glyph-name="logicalnot" unicode="&#xac;" 
d="M1067 741l-104 -557h-279l55 295h-657l49 262h936z" />
    <glyph glyph-name="registered" unicode="&#xae;" horiz-adv-x="1134" 
d="M743 1184q0 33 -43 33h-26l-17 -91h19q29 0 48 16t19 42zM899 1212q0 -102 -106 -149q12 -23 20 -57l31 -134h-160l-27 160h-18l-31 -160h-135l86 449h191q149 0 149 -109zM676 768q127 0 223 98t96 232q0 133 -84 222q-85 89 -211 89t-222 -98q-96 -97 -97 -231
q0 -134 84 -223t211 -89zM707 1577q203 0 338 -132t135 -340t-156 -356q-156 -149 -358 -149t-335 132q-134 132 -134 341t153 357q154 147 357 147z" />
    <glyph glyph-name="macron" unicode="&#xaf;" horiz-adv-x="792" 
d="M866 1430l-41 -226h-565l43 226h563z" />
    <glyph glyph-name="degree" unicode="&#xb0;" horiz-adv-x="794" 
d="M643 1216q1 46 -23 76t-69 31q-45 0 -77 -33t-32 -83t25 -78q25 -27 71 -27t76 34t29 80zM870 1243q0 -162 -108 -249t-250 -87q-143 0 -221 76q-78 77 -78 215t110 226t256 89q146 0 219 -76q72 -77 72 -194z" />
    <glyph glyph-name="plusminus" unicode="&#xb1;" 
d="M1006 260l-52 -260h-954l49 260h957zM1151 981l-49 -258h-338l-68 -356h-297l68 356h-338l47 258h338l70 356h297l-68 -356h338z" />
    <glyph glyph-name="twosuperior" unicode="&#xb2;" horiz-adv-x="653" 
d="M696 1195q0 -71 -39 -126t-133 -123l-55 -39h190l-34 -186h-492l35 174l111 78q139 98 139 149q0 41 -51 41t-113 -30l-8 180q114 41 224 41t168 -44t58 -115z" />
    <glyph glyph-name="threesuperior" unicode="&#xb3;" horiz-adv-x="813" 
d="M678 1208q0 -127 -119 -174q41 -4 66 -35t24 -75q0 -92 -85 -159t-269 -67q-74 0 -160 19l41 149q49 -16 98 -16q111 0 111 70q0 63 -170 36l25 136h18q164 0 164 75q0 35 -62 35t-108 -26l-6 145q94 33 209 33q223 -1 223 -146z" />
    <glyph glyph-name="acute" unicode="&#xb4;" horiz-adv-x="794" 
d="M838 1346l-422 -213l-101 170l406 253z" />
    <glyph glyph-name="paragraph" unicode="&#xb6;" horiz-adv-x="1218" 
d="M770 1382l-176 -933q-209 0 -314 101t-106 277q0 229 162 392t434 163zM1307 1382l-47 -252h-123l-252 -1327h-391l47 252h137l252 1327h377z" />
    <glyph glyph-name="periodcentered" unicode="&#xb7;" horiz-adv-x="598" 
d="M133 608q1 80 61 138t142 58t136 -56t54 -136t-60 -138t-141 -58t-137 56q-55 56 -55 136z" />
    <glyph glyph-name="cedilla" unicode="&#xb8;" horiz-adv-x="802" 
d="M410 -80q111 -221 -101 -399h-237q88 87 107 157t-32 170z" />
    <glyph glyph-name="onesuperior" unicode="&#xb9;" horiz-adv-x="647" 
d="M653 1331l-114 -610h-246l78 416l-135 -52l-3 179l193 67h227z" />
    <glyph glyph-name="ordmasculine" unicode="&#xba;" horiz-adv-x="862" 
d="M496 836q80 0 127 78t47 179t-87 101t-131 -81t-44 -179t88 -98zM786 553l-45 -242h-669l45 242h669zM920 1122q0 -223 -134 -361t-327 -138q-150 -1 -225 75t-74 203q0 217 126 361t332 145q302 0 302 -285z" />
    <glyph glyph-name="guillemotright" unicode="&#xbb;" horiz-adv-x="1101" 
d="M598 588l-303 -393l-221 112l229 295l-127 297l252 107zM1069 586l-285 -406l-229 113l221 309l-110 313l258 105z" />
    <glyph glyph-name="onequarter" unicode="&#xbc;" horiz-adv-x="1476" 
d="M1102 471l-158 -215h115zM1354 258l-33 -168h-82l-18 -90h-211l16 90h-278l10 158l262 362h317l-65 -352h82zM1458 1225l-1255 -1274l-162 151l1255 1274zM651 1331l-114 -610h-246l80 416l-135 -52l-5 179l193 67h227z" />
    <glyph glyph-name="onehalf" unicode="&#xbd;" horiz-adv-x="1480" 
d="M651 1331l-114 -610h-246l80 416l-135 -52l-5 179l193 67h227zM1458 1225l-1255 -1274l-162 151l1255 1274zM1370 473q0 -72 -39 -127t-131 -121l-57 -39h192l-35 -186h-491l35 174l108 78q141 98 142 149q0 39 -54 39t-110 -28l-10 180q120 41 228 41t165 -44t57 -116z
" />
    <glyph glyph-name="threequarters" unicode="&#xbe;" horiz-adv-x="1492" 
d="M688 1208q0 -127 -119 -174q41 -4 66 -36t24 -74q0 -92 -86 -159t-270 -67q-74 0 -160 19l43 149q49 -16 97 -16q113 0 112 70q0 63 -172 36l27 136h16q164 0 164 75q0 35 -59 35t-111 -26l-4 145q94 33 207 33q225 -1 225 -146zM1473 1225l-1256 -1274l-162 151
l1256 1274zM1370 258l-33 -168h-82l-18 -90h-213l18 90h-280l12 158l262 362h316l-66 -352h84zM1116 471l-158 -215h117z" />
    <glyph glyph-name="questiondown" unicode="&#xbf;" horiz-adv-x="913" 
d="M332 -12q0 -145 350 -164l-92 -283q-297 11 -450 117t-152 268q0 104 47 188t112 135q66 52 131 101q150 113 132 256h301q14 -92 -8 -168q-21 -76 -63 -123q-87 -99 -198 -169q-110 -71 -110 -158zM612 1042q78 0 126 -48t48 -122q0 -76 -57 -130t-135 -54t-126 49
t-48 124t57 128t135 53z" />
    <glyph glyph-name="Agrave" unicode="&#xc0;" horiz-adv-x="1271" 
d="M797 508l-43 315q-10 63 -19 193h-2q-49 -121 -88 -193l-162 -315h314zM1196 0h-334l-35 256h-469l-131 -256h-321l723 1382h356zM975 1622l-70 -168l-452 105l92 217z" />
    <glyph glyph-name="Aacute" unicode="&#xc1;" horiz-adv-x="1271" 
d="M797 508l-43 315q-10 63 -19 193h-2q-49 -121 -88 -193l-162 -315h314zM1196 0h-334l-35 256h-469l-131 -256h-321l723 1382h356zM1161 1559l-473 -105l-29 168l465 154z" />
    <glyph glyph-name="Acircumflex" unicode="&#xc2;" horiz-adv-x="1271" 
d="M797 508l-43 315q-10 63 -19 193h-2q-49 -121 -88 -193l-162 -315h314zM1196 0h-334l-35 256h-469l-131 -256h-321l723 1382h356zM1171 1602l-79 -148l-263 117l-288 -117l-54 145l363 181z" />
    <glyph glyph-name="Atilde" unicode="&#xc3;" horiz-adv-x="1271" 
d="M797 508l-43 315q-10 63 -19 193h-2q-49 -121 -88 -193l-162 -315h314zM1196 0h-334l-35 256h-469l-131 -256h-321l723 1382h356zM938 1481q-78 0 -148 45t-98 45q-63 0 -112 -84l-148 102q106 180 277 180q79 0 149 -45t98 -45q59 0 113 84l145 -102
q-104 -180 -276 -180z" />
    <glyph glyph-name="Adieresis" unicode="&#xc4;" horiz-adv-x="1271" 
d="M797 508l-43 315q-10 63 -19 193h-2q-49 -121 -88 -193l-162 -315h314zM1196 0h-334l-35 256h-469l-131 -256h-321l723 1382h356zM756 1621q0 -58 -43 -101t-101 -43t-96 40q-39 40 -39 98t43 101q42 43 100 43t97 -40t39 -98zM1194 1621q0 -58 -43 -101t-100 -43t-97 40
q-39 40 -39 98t42 101q43 43 101 43t97 -40t39 -98z" />
    <glyph glyph-name="Aring" unicode="&#xc5;" horiz-adv-x="1271" 
d="M795 508l-41 276q-18 133 -21 228h-4q-57 -135 -111 -244l-137 -260h314zM913 1472q1 44 -27 72t-72 29q-44 0 -75 -32t-31 -76q0 -45 28 -73t72 -28t75 32q30 32 30 76zM820 1735q116 0 193 -73q77 -72 77 -186t-91 -190l197 -1286h-334l-35 256h-469l-131 -256h-321
l684 1307q-58 61 -58 165t86 184q86 79 202 79z" />
    <glyph glyph-name="AE" unicode="&#xc6;" horiz-adv-x="1570" 
d="M864 1120h-4q-111 -203 -182 -315l-182 -281h254zM1655 1382l-51 -268h-443l-53 -274h428l-49 -260h-428l-60 -306h457l-51 -274h-758l55 274h-356l-174 -274h-334l879 1382h938z" />
    <glyph glyph-name="Ccedilla" unicode="&#xc7;" horiz-adv-x="1105" 
d="M631 -80q111 -221 -101 -399h-237q88 87 107 157t-31 170zM893 1106q-279 0 -390 -275q-57 -139 -58 -282q-1 -145 59 -211t198 -66q136 0 263 52l-11 -291q-164 -51 -316 -51q-272 0 -399 109q-151 129 -151 380q0 365 207 633q100 131 260 210t337 79t304 -37l-86 -291
q-113 41 -217 41z" />
    <glyph glyph-name="Egrave" unicode="&#xc8;" horiz-adv-x="976" 
d="M1061 1382l-51 -268h-451l-51 -274h428l-51 -260h-426l-60 -306h451l-51 -274h-762l262 1382h762zM891 1622l-68 -168l-452 105l90 217z" />
    <glyph glyph-name="Eacute" unicode="&#xc9;" horiz-adv-x="976" 
d="M1061 1382l-51 -268h-451l-51 -274h428l-51 -260h-426l-60 -306h451l-51 -274h-762l262 1382h762zM1073 1559l-475 -105l-29 168l465 154z" />
    <glyph glyph-name="Ecircumflex" unicode="&#xca;" horiz-adv-x="976" 
d="M1061 1382l-51 -268h-451l-51 -274h428l-51 -260h-426l-60 -306h451l-51 -274h-762l262 1382h762zM1047 1602l-80 -148l-262 117l-289 -117l-54 145l363 181z" />
    <glyph glyph-name="Edieresis" unicode="&#xcb;" horiz-adv-x="976" 
d="M1061 1382l-51 -268h-451l-51 -274h428l-51 -260h-426l-60 -306h451l-51 -274h-762l262 1382h762zM635 1621q0 -58 -42 -101t-99 -43t-97 40q-39 40 -39 98t42 101t100 43t97 -40q38 -40 38 -98zM1073 1621q0 -58 -42 -101t-100 -43t-97 40t-39 98t43 101t100 43t96 -40
t39 -98z" />
    <glyph glyph-name="Igrave" unicode="&#xcc;" horiz-adv-x="552" 
d="M610 1382l-262 -1382h-311l262 1382h311zM686 1622l-68 -168l-452 105l92 217z" />
    <glyph glyph-name="Iacute" unicode="&#xcd;" horiz-adv-x="552" 
d="M610 1382l-262 -1382h-311l262 1382h311zM793 1559l-474 -105l-28 168l465 154z" />
    <glyph glyph-name="Icircumflex" unicode="&#xce;" horiz-adv-x="552" 
d="M610 1382l-262 -1382h-311l262 1382h311zM829 1602l-79 -148l-263 117l-290 -117l-52 145l361 181z" />
    <glyph glyph-name="Idieresis" unicode="&#xcf;" horiz-adv-x="552" 
d="M610 1382l-262 -1382h-311l262 1382h311zM272 1759q56 0 96 -40t40 -98t-43 -101t-101 -43t-96 40q-39 40 -39 98t43 101t100 43zM846 1621q0 -58 -43 -101t-101 -43t-96 40q-39 40 -39 98t43 101q42 43 100 43t97 -40t39 -98z" />
    <glyph glyph-name="Eth" unicode="&#xd0;" horiz-adv-x="1357" 
d="M1010 862q0 129 -66 195t-221 65q-106 0 -143 -4l-56 -301h215l-47 -239h-215l-57 -306q54 -8 130 -8t162 41t141 105q110 130 142 304q15 76 15 148zM1343 893q0 -368 -216 -627q-105 -128 -274 -202t-361 -74t-437 12l111 576h-135l45 239h135l106 561q213 12 471 12
t406 -123q149 -124 149 -374z" />
    <glyph glyph-name="Ntilde" unicode="&#xd1;" horiz-adv-x="1363" 
d="M1423 1382l-264 -1382h-366l-207 588q-43 125 -88 305q-18 -154 -49 -313l-109 -580h-303l262 1382h369l198 -540q51 -143 101 -340q18 166 53 354l100 526h303zM1018 1481q-78 0 -148 45t-98 45q-63 0 -113 -84l-147 102q106 180 274 180q78 0 149 -45t99 -45
q61 0 115 84l145 -102q-106 -180 -276 -180z" />
    <glyph glyph-name="Ograve" unicode="&#xd2;" horiz-adv-x="1409" 
d="M1087 860q0 119 -59 189t-178 69q-192 0 -312 -176t-120 -405q0 -270 233 -271q188 0 313 176q123 176 123 418zM1419 897q1 -395 -237 -659t-578 -265q-262 1 -392 135t-130 376t106 456q106 213 296 341t430 128q241 0 373 -133t132 -379zM1120 1622l-67 -168l-453 105
l90 217z" />
    <glyph glyph-name="Oacute" unicode="&#xd3;" horiz-adv-x="1409" 
d="M1087 860q0 119 -59 189t-178 69q-192 0 -312 -176t-120 -405q0 -270 233 -271q188 0 313 176q123 176 123 418zM1419 897q1 -395 -237 -659t-578 -265q-262 1 -392 135t-130 376t106 456q106 213 296 341t430 128q241 0 373 -133t132 -379zM1272 1559l-473 -105l-31 168
l465 154z" />
    <glyph glyph-name="Ocircumflex" unicode="&#xd4;" horiz-adv-x="1409" 
d="M1087 860q0 119 -59 189t-178 69q-192 0 -312 -176t-120 -405q0 -270 233 -271q188 0 313 176q123 176 123 418zM1419 897q1 -395 -237 -659t-578 -265q-262 1 -392 135t-130 376t106 456q106 213 296 341t430 128q241 0 373 -133t132 -379zM1280 1602l-80 -148l-262 117
l-289 -117l-53 145l362 181z" />
    <glyph glyph-name="Otilde" unicode="&#xd5;" horiz-adv-x="1409" 
d="M1087 860q0 119 -59 189t-178 69q-192 0 -312 -176t-120 -405q0 -270 233 -271q188 0 313 176q123 176 123 418zM1419 897q1 -395 -237 -659t-578 -265q-262 1 -392 135t-130 376t106 456q106 213 296 341t430 128q241 0 373 -133t132 -379zM1057 1481q-78 0 -148 45
t-98 45q-63 0 -113 -84l-147 102q106 180 276 180q78 0 149 -45t99 -45q59 0 113 84l145 -102q-104 -180 -276 -180z" />
    <glyph glyph-name="Odieresis" unicode="&#xd6;" horiz-adv-x="1409" 
d="M1087 860q0 119 -59 189t-178 69q-192 0 -312 -176t-120 -405q0 -270 233 -271q188 0 313 176q123 176 123 418zM1419 897q1 -395 -237 -659t-578 -265q-262 1 -392 135t-130 376t106 456q106 213 296 341t430 128q241 0 373 -133t132 -379zM739 1759q57 0 96 -40t39 -98
t-42 -101t-100 -43t-97 40t-39 98t43 101t100 43zM1313 1621q0 -58 -43 -101q-42 -43 -100 -43t-97 40t-39 98t43 101t101 43t96 -40q39 -40 39 -98z" />
    <glyph glyph-name="multiply" unicode="&#xd7;" 
d="M1130 903l-356 -299l244 -305l-211 -170l-242 301l-354 -301l-156 184l361 303l-244 304l213 167l238 -294l350 294z" />
    <glyph glyph-name="Oslash" unicode="&#xd8;" horiz-adv-x="1409" 
d="M408 530q0 -100 38 -153l398 749q-35 0 -80 -10q-162 -41 -259 -209t-97 -377zM1100 866q0 100 -49 160l-408 -768q226 0 358 228q99 167 99 380zM1419 897q1 -395 -237 -659t-578 -265q-53 0 -108 11l-101 -203l-221 76l102 198q-195 127 -194 426q0 248 104 461
t294 340t419 127q51 0 92 -8l96 188l220 -71l-97 -185q209 -121 209 -436z" />
    <glyph glyph-name="Ugrave" unicode="&#xd9;" horiz-adv-x="1351" 
d="M582 -27q-553 0 -447 549l162 860h313l-170 -888q-24 -128 20 -190t174 -62t203 68t101 222l162 850h309l-168 -874q-100 -535 -659 -535zM1044 1622l-69 -168l-453 105l92 217z" />
    <glyph glyph-name="Uacute" unicode="&#xda;" horiz-adv-x="1351" 
d="M582 -27q-553 0 -447 549l162 860h313l-170 -888q-24 -128 20 -190t174 -62t203 68t101 222l162 850h309l-168 -874q-100 -535 -659 -535zM1262 1559l-476 -105l-28 168l465 154z" />
    <glyph glyph-name="Ucircumflex" unicode="&#xdb;" horiz-adv-x="1351" 
d="M582 -27q-553 0 -447 549l162 860h313l-170 -888q-24 -128 20 -190t174 -62t203 68t101 222l162 850h309l-168 -874q-100 -535 -659 -535zM1229 1602l-80 -148l-262 117l-289 -117l-53 145l362 181z" />
    <glyph glyph-name="Udieresis" unicode="&#xdc;" horiz-adv-x="1351" 
d="M582 -27q-553 0 -447 549l162 860h313l-170 -888q-24 -128 20 -190t174 -62t203 68t101 222l162 850h309l-168 -874q-100 -535 -659 -535zM654 1759q58 0 96 -40t38 -98t-42 -101t-99 -43t-96 40t-39 98t42 101t100 43zM1227 1621q0 -58 -42 -101q-43 -43 -101 -43
t-97 40t-39 98t43 101t101 43t96 -40q39 -40 39 -98z" />
    <glyph glyph-name="Yacute" unicode="&#xdd;" horiz-adv-x="1159" 
d="M1341 1382l-602 -899l-92 -483h-311l92 481l-254 901h330l88 -352q29 -117 45 -221h4q27 53 152 250l204 323h344zM1126 1559l-473 -105l-28 168l465 154z" />
    <glyph glyph-name="Thorn" unicode="&#xde;" horiz-adv-x="1107" 
d="M819 784q0 160 -186 160q-41 0 -107 -4l-82 -434q41 -8 88 -8q127 0 207 82t80 204zM1149 838q0 -254 -183 -426t-468 -172q-78 0 -103 2l-47 -242h-311l262 1382h313l-34 -182q74 4 129 4q215 0 329 -94t113 -272z" />
    <glyph glyph-name="germandbls" unicode="&#xdf;" horiz-adv-x="1234" 
d="M1126 344q0 -152 -124 -260t-355 -107q-98 0 -180 17l53 254q74 -29 148 -29q133 0 133 98q0 76 -99 172q-38 37 -68 101t-30 141q0 78 43 148q43 69 93 109q137 108 137 202q0 36 -29 58t-80 22q-86 0 -147 -64t-86 -188l-199 -1047q-47 -245 -171 -359t-333 -114
q-80 0 -151 17l69 247q38 -10 106 -10t109 49t66 176l194 1027q47 254 202 380t357 127q202 0 310 -77q106 -78 106 -218t-98 -235q-41 -39 -82 -73q-100 -83 -98 -154q0 -44 51 -104t102 -138t51 -168z" />
    <glyph glyph-name="agrave" unicode="&#xe0;" horiz-adv-x="1116" 
d="M969 1303l-117 -170l-401 219l139 204zM756 782q-53 12 -94 13q-90 0 -159 -71q-134 -138 -132 -366q0 -113 59 -112q82 0 184 164t131 317zM301 -25q-248 1 -248 319t172 532t492 214q209 1 389 -34q-164 -858 -186 -1006h-302q29 119 82 264h-4q-172 -289 -395 -289z
" />
    <glyph glyph-name="aacute" unicode="&#xe1;" horiz-adv-x="1116" 
d="M1155 1346l-422 -213l-100 170l405 253zM756 782q-53 12 -94 13q-90 0 -159 -71q-134 -138 -132 -366q0 -113 59 -112q82 0 184 164t131 317zM301 -25q-248 1 -248 319t172 532t492 214q209 1 389 -34q-164 -858 -186 -1006h-302q29 119 82 264h-4q-172 -289 -395 -289z
" />
    <glyph glyph-name="acircumflex" unicode="&#xe2;" horiz-adv-x="1116" 
d="M1110 1274l-131 -141l-182 161l-242 -161l-98 141l379 282zM756 782q-53 12 -94 13q-90 0 -159 -71q-134 -138 -132 -366q0 -113 59 -112q82 0 184 164t131 317zM301 -25q-248 1 -248 319t172 532t492 214q209 1 389 -34q-164 -858 -186 -1006h-302q29 119 82 264h-4
q-172 -289 -395 -289z" />
    <glyph glyph-name="atilde" unicode="&#xe3;" horiz-adv-x="1116" 
d="M899 1167q-75 -1 -143 49t-97 50q-63 0 -112 -90l-141 110q104 199 272 199q76 0 144 -49t96 -50q66 0 114 91l139 -111q-98 -199 -272 -199zM756 782q-53 12 -94 13q-90 0 -159 -71q-134 -138 -132 -366q0 -113 59 -112q82 0 184 164t131 317zM301 -25q-248 1 -248 319
t172 532t492 214q209 1 389 -34q-164 -858 -186 -1006h-302q29 119 82 264h-4q-172 -289 -395 -289z" />
    <glyph glyph-name="adieresis" unicode="&#xe4;" horiz-adv-x="1116" 
d="M581 1483q67 1 111 -47t45 -114q0 -66 -50 -115q-50 -48 -117 -48q-68 0 -112 46t-44 113t50 116t117 49zM1009 1483q67 1 111 -47t45 -114q0 -66 -50 -115q-50 -48 -117 -48q-68 0 -112 46t-44 113t50 116t117 49zM756 782q-53 12 -94 13q-90 0 -159 -71
q-134 -138 -132 -366q0 -113 59 -112q82 0 184 164t131 317zM301 -25q-248 1 -248 319t172 532t492 214q209 1 389 -34q-164 -858 -186 -1006h-302q29 119 82 264h-4q-172 -289 -395 -289z" />
    <glyph glyph-name="aring" unicode="&#xe5;" horiz-adv-x="1116" 
d="M824 1477q-44 0 -74 -33t-31 -75t27 -72q28 -29 71 -29t75 32t32 74q0 43 -28 73t-72 30zM1100 1378q0 -114 -86 -192t-202 -78t-192 72t-77 186q0 114 86 194q85 78 201 78t193 -72t77 -188zM756 782q-53 12 -94 13q-90 0 -159 -71q-134 -138 -132 -366q0 -113 59 -112
q82 0 184 164t131 317zM301 -25q-248 1 -248 319t172 532t492 214q209 1 389 -34q-164 -858 -186 -1006h-302q29 119 82 264h-4q-172 -289 -395 -289z" />
    <glyph glyph-name="ae" unicode="&#xe6;" horiz-adv-x="1560" 
d="M404 213q82 0 141 60q59 61 69 143q-145 -4 -219 -34t-73 -99q0 -70 82 -70zM1249 739q0 35 -24 56q-25 20 -64 20q-76 0 -130 -61t-79 -148q297 6 297 133zM1548 780q0 -358 -628 -372q-22 -124 31 -161q37 -26 157 -26t276 62v-238q-193 -68 -399 -68q-262 0 -326 183
q-59 -84 -154 -133t-220 -49t-192 73q-67 74 -66 180q0 371 626 381l9 45q33 142 -146 142q-152 0 -291 -66v252q168 59 370 59t284 -106q57 43 145 74t170 30q194 0 274 -76t80 -186z" />
    <glyph glyph-name="ccedilla" unicode="&#xe7;" horiz-adv-x="815" 
d="M461 -80q111 -221 -101 -399h-237q88 87 107 157t-31 170zM383 408q0 -156 158 -156q88 0 164 29l-25 -269q-104 -37 -231 -37q-391 0 -392 365q0 299 168 500t441 200q98 1 194 -22l-72 -270q-59 27 -137 26q-129 0 -199 -112t-69 -254z" />
    <glyph glyph-name="egrave" unicode="&#xe8;" horiz-adv-x="1005" 
d="M901 1303l-117 -170l-401 219l139 204zM694 739q0 72 -81 72t-135 -62t-81 -155q297 6 297 145zM993 780q0 -188 -166 -283t-460 -104q-2 -17 -2 -69q-1 -52 33 -78t154 -25q120 0 277 62l2 -238q-193 -68 -397 -68q-204 1 -290 91q-87 90 -87 264q0 322 174 516t412 192
q190 0 270 -74t80 -186z" />
    <glyph glyph-name="eacute" unicode="&#xe9;" horiz-adv-x="1005" 
d="M1014 1346l-422 -213l-100 170l405 253zM694 739q0 72 -81 72t-135 -62t-81 -155q297 6 297 145zM993 780q0 -188 -166 -283t-460 -104q-2 -17 -2 -69q-1 -52 33 -78t154 -25q120 0 277 62l2 -238q-193 -68 -397 -68q-204 1 -290 91q-87 90 -87 264q0 322 174 516
t412 192q190 0 270 -74t80 -186z" />
    <glyph glyph-name="ecircumflex" unicode="&#xea;" horiz-adv-x="1005" 
d="M1004 1274l-132 -141l-182 161l-241 -161l-99 141l379 282zM694 739q0 72 -81 72t-135 -62t-81 -155q297 6 297 145zM993 780q0 -188 -166 -283t-460 -104q-2 -17 -2 -69q-1 -52 33 -78t154 -25q120 0 277 62l2 -238q-193 -68 -397 -68q-204 1 -290 91q-87 90 -87 264
q0 322 174 516t412 192q190 0 270 -74t80 -186z" />
    <glyph glyph-name="edieresis" unicode="&#xeb;" horiz-adv-x="1005" 
d="M491 1483q67 1 111 -47t45 -114q0 -66 -50 -115q-50 -48 -117 -48q-68 0 -112 46t-44 113t50 116t117 49zM919 1483q67 1 111 -47t45 -114q0 -66 -50 -115q-50 -48 -117 -48q-68 0 -112 46t-44 113t50 116t117 49zM694 739q0 72 -81 72t-135 -62t-81 -155q297 6 297 145z
M993 780q0 -188 -166 -283t-460 -104q-2 -17 -2 -69q-1 -52 33 -78t154 -25q120 0 277 62l2 -238q-193 -68 -397 -68q-204 1 -290 91q-87 90 -87 264q0 322 174 516t412 192q190 0 270 -74t80 -186z" />
    <glyph glyph-name="igrave" unicode="&#xec;" horiz-adv-x="546" 
d="M666 1303l-117 -170l-402 219l140 204zM537 1018l-195 -1018h-307l194 1018h308z" />
    <glyph glyph-name="iacute" unicode="&#xed;" horiz-adv-x="546" 
d="M678 1346l-422 -213l-100 170l405 253zM537 1018l-195 -1018h-307l194 1018h308z" />
    <glyph glyph-name="icircumflex" unicode="&#xee;" horiz-adv-x="546" 
d="M754 1274l-131 -141l-183 161l-241 -161l-99 141l379 282zM537 1018l-195 -1018h-307l194 1018h308z" />
    <glyph glyph-name="idieresis" unicode="&#xef;" horiz-adv-x="546" 
d="M235 1483q67 1 111 -47t45 -114q0 -66 -50 -115q-50 -48 -117 -48q-68 0 -112 46t-44 113t50 116t117 49zM663 1483q67 1 111 -47t45 -114q0 -66 -50 -115q-50 -48 -117 -48q-68 0 -112 46t-44 113t50 116t117 49zM537 1018l-195 -1018h-307l194 1018h308z" />
    <glyph glyph-name="eth" unicode="&#xf0;" horiz-adv-x="1124" 
d="M379 418q-1 -170 137 -170q68 0 122 43t81 106t39 122t12 117t-34 98t-97 40q-117 0 -189 -104t-71 -252zM1102 793q0 -201 -54 -362q-97 -288 -342 -403q-108 -50 -223 -51q-426 0 -426 381q0 296 177 486t415 190q98 0 133 -43q-47 118 -96 189l-197 -82l-92 145
l170 72q-39 39 -116 100l299 129q63 -61 106 -108l188 77l93 -145l-174 -74q139 -221 139 -501z" />
    <glyph glyph-name="ntilde" unicode="&#xf1;" horiz-adv-x="1138" 
d="M813 1167q-75 -1 -143 49t-97 50q-63 0 -112 -90l-142 110q104 199 273 199q76 0 144 -49t95 -50q66 0 115 91l139 -111q-98 -199 -272 -199zM709 772q-79 0 -181 -162t-135 -331l-51 -279h-307l102 532q55 283 86 486h297q-20 -111 -78 -260h4q166 285 402 284
q144 0 198 -90t25 -243l-135 -709h-305l121 631q25 141 -43 141z" />
    <glyph glyph-name="ograve" unicode="&#xf2;" horiz-adv-x="1124" 
d="M909 1303l-116 -170l-402 219l139 204zM508 248q120 0 192 116t72 262t-137 146q-117 0 -188 -120t-71 -262t132 -142zM1096 666q0 -303 -186 -496t-441 -193q-219 1 -316 95t-98 274q1 314 187 504t442 190q412 1 412 -374z" />
    <glyph glyph-name="oacute" unicode="&#xf3;" horiz-adv-x="1124" 
d="M1069 1346l-422 -213l-100 170l405 253zM508 248q120 0 192 116t72 262t-137 146q-117 0 -188 -120t-71 -262t132 -142zM1096 666q0 -303 -186 -496t-441 -193q-219 1 -316 95t-98 274q1 314 187 504t442 190q412 1 412 -374z" />
    <glyph glyph-name="ocircumflex" unicode="&#xf4;" horiz-adv-x="1124" 
d="M1065 1274l-131 -141l-182 161l-242 -161l-98 141l379 282zM508 248q120 0 192 116t72 262t-137 146q-117 0 -188 -120t-71 -262t132 -142zM1096 666q0 -303 -186 -496t-441 -193q-219 1 -316 95t-98 274q1 314 187 504t442 190q412 1 412 -374z" />
    <glyph glyph-name="otilde" unicode="&#xf5;" horiz-adv-x="1124" 
d="M858 1167q-76 -1 -144 49t-96 50q-63 0 -112 -90l-141 110q104 199 272 199q75 0 143 -49t97 -50q66 0 114 91l139 -111q-98 -199 -272 -199zM508 248q120 0 192 116t72 262t-137 146q-117 0 -188 -120t-71 -262t132 -142zM1096 666q0 -303 -186 -496t-441 -193
q-219 1 -316 95t-98 274q1 314 187 504t442 190q412 1 412 -374z" />
    <glyph glyph-name="odieresis" unicode="&#xf6;" horiz-adv-x="1124" 
d="M534 1483q68 1 112 -47t44 -114t-50 -115q-50 -48 -117 -48t-111 46t-45 113q0 67 50 116t117 49zM962 1483q68 1 112 -47t44 -114t-50 -115q-50 -48 -117 -48t-111 46t-45 113q0 67 50 116t117 49zM508 248q120 0 192 116t72 262t-137 146q-117 0 -188 -120t-71 -262
t132 -142zM1096 666q0 -303 -186 -496t-441 -193q-219 1 -316 95t-98 274q1 314 187 504t442 190q412 1 412 -374z" />
    <glyph glyph-name="divide" unicode="&#xf7;" 
d="M698 203q0 -76 -57 -132q-57 -57 -132 -57t-127 54t-52 128q0 76 56 132t132 55q76 0 128 -52t52 -128zM1106 741l-51 -262h-973l49 262h975zM854 1024q0 -76 -56 -132t-132 -56t-127 52t-51 129t56 132t132 55t127 -52t51 -128z" />
    <glyph glyph-name="oslash" unicode="&#xf8;" horiz-adv-x="1124" 
d="M348 410q0 -53 21 -86l266 464q-16 2 -51 -2q-98 -16 -167 -126t-69 -250zM801 625q0 49 -27 84l-270 -478q29 -4 55 2q115 21 179 143t63 249zM1096 666q0 -303 -186 -496t-439 -193q-59 0 -98 9l-119 -207l-160 76l105 184q-143 84 -144 307q0 303 175 499t452 195
q47 0 86 -6l123 217l158 -73l-111 -195q158 -88 158 -317z" />
    <glyph glyph-name="ugrave" unicode="&#xf9;" horiz-adv-x="1136" 
d="M874 1303l-116 -170l-402 219l140 204zM315 -25q-143 -1 -196 91t-25 243l133 709h308l-121 -631q-29 -141 45 -141t176 162t135 331l53 279h307l-102 -533q-55 -283 -86 -485h-299q29 135 78 260h-4q-166 -285 -402 -285z" />
    <glyph glyph-name="uacute" unicode="&#xfa;" horiz-adv-x="1136" 
d="M1102 1346l-422 -213l-100 170l405 253zM315 -25q-143 -1 -196 91t-25 243l133 709h308l-121 -631q-29 -141 45 -141t176 162t135 331l53 279h307l-102 -533q-55 -283 -86 -485h-299q29 135 78 260h-4q-166 -285 -402 -285z" />
    <glyph glyph-name="ucircumflex" unicode="&#xfb;" horiz-adv-x="1136" 
d="M1040 1274l-131 -141l-182 161l-242 -161l-98 141l379 282zM315 -25q-143 -1 -196 91t-25 243l133 709h308l-121 -631q-29 -141 45 -141t176 162t135 331l53 279h307l-102 -533q-55 -283 -86 -485h-299q29 135 78 260h-4q-166 -285 -402 -285z" />
    <glyph glyph-name="udieresis" unicode="&#xfc;" horiz-adv-x="1136" 
d="M505 1483q67 1 112 -47t45 -114t-50 -115q-50 -48 -118 -48q-66 0 -111 46t-45 113t50 116t117 49zM933 1483q67 1 112 -47t45 -114t-50 -115q-50 -48 -118 -48q-66 0 -111 46t-45 113t50 116t117 49zM315 -25q-143 -1 -196 91t-25 243l133 709h308l-121 -631
q-29 -141 45 -141t176 162t135 331l53 279h307l-102 -533q-55 -283 -86 -485h-299q29 135 78 260h-4q-166 -285 -402 -285z" />
    <glyph glyph-name="yacute" unicode="&#xfd;" horiz-adv-x="1083" 
d="M1040 1346l-422 -213l-100 170l406 253zM-6 -502q-88 0 -158 17l49 264q59 -21 141 -21t156 68t74 215q0 393 -164 977h342q94 -362 94 -680q0 -31 -6 -59h4q174 334 344 782l291 -80q-223 -516 -400 -812q-177 -295 -366 -483t-401 -188z" />
    <glyph glyph-name="thorn" unicode="&#xfe;" horiz-adv-x="1116" 
d="M772 666q0 106 -59 106q-83 0 -185 -163t-131 -316l-10 -53q43 -16 94 -17q90 0 159 71q132 136 132 372zM1090 724q0 -318 -172 -531t-492 -213q-51 0 -88 6l-88 -471h-307l376 1980h312l-56 -291q-45 -236 -126 -438h4q166 276 393 276q244 0 244 -318z" />
    <glyph glyph-name="ydieresis" unicode="&#xff;" horiz-adv-x="1083" 
d="M468 1483q67 1 112 -47t45 -114q-1 -66 -51 -115q-50 -48 -116 -48t-112 46q-45 46 -45 113t50 116t117 49zM896 1483q67 1 112 -47t45 -114q-1 -66 -51 -115q-50 -48 -116 -48t-112 46q-45 46 -45 113t50 116t117 49zM-6 -502q-88 0 -158 17l49 264q59 -21 141 -21
t156 68t74 215q0 393 -164 977h342q94 -362 94 -680q0 -31 -6 -59h4q174 334 344 782l291 -80q-223 -516 -400 -812q-177 -295 -366 -483t-401 -188z" />
    <glyph glyph-name="dotlessi" unicode="&#x131;" horiz-adv-x="546" 
d="M537 1018l-195 -1018h-307l194 1018h308z" />
    <glyph glyph-name="Lslash" unicode="&#x141;" horiz-adv-x="884" 
d="M829 283l-55 -283h-727l98 510l-120 -37l2 238l168 49l120 622h314l-105 -538l189 53l-4 -240l-232 -63l-59 -311h411z" />
    <glyph glyph-name="lslash" unicode="&#x142;" horiz-adv-x="612" 
d="M674 893l-23 -240l-164 -47l-116 -606h-310l103 524l-141 -39l22 238l166 47l139 725h309l-124 -641z" />
    <glyph glyph-name="OE" unicode="&#x152;" horiz-adv-x="1722" 
d="M418 537q0 -270 233 -271q90 0 189 35l149 791q-70 27 -139 26q-192 0 -312 -176t-120 -405zM604 -27q-262 1 -392 135t-130 376t106 456q106 213 296 341t417 128q109 0 211 -27h694l-51 -268h-448l-54 -274h428l-51 -260h-426l-57 -306h448l-53 -274h-727
q-129 -27 -211 -27z" />
    <glyph glyph-name="oe" unicode="&#x153;" horiz-adv-x="1685" 
d="M508 248q120 0 192 116t72 262t-137 146q-117 0 -188 -120t-71 -262t132 -142zM1376 739q0 72 -81 72q-148 0 -216 -217q297 6 297 145zM1234 221q120 0 277 62l2 -238q-193 -68 -411 -68t-285 132q-143 -131 -354 -131q-406 -1 -408 368q1 314 187 504t424 190t333 -127
q137 127 328 127t269 -74t79 -186q0 -188 -167 -283t-459 -104l-2 -53q-1 -68 33 -94t154 -25z" />
    <glyph glyph-name="Scaron" unicode="&#x160;" horiz-adv-x="952" 
d="M710 1143q-98 0 -152 -42q-54 -41 -54 -99t40 -99t96 -76t112 -76q55 -42 95 -114t40 -164q0 -211 -168 -355t-426 -145q-158 0 -264 33l55 299q104 -49 227 -49q233 0 234 160q0 49 -39 88t-95 73t-113 73q-56 40 -95 109t-39 161q0 211 147 350t420 139q113 0 242 -20
l-55 -281q-110 35 -208 35zM1077 1634l-362 -180l-324 178l82 148l262 -117l289 117z" />
    <glyph glyph-name="scaron" unicode="&#x161;" horiz-adv-x="765" 
d="M928 1415l-379 -282l-275 282l132 141l182 -161l241 161zM567 811q-129 0 -129 -84q0 -57 119 -150q45 -36 82 -102t37 -139q0 -143 -125 -251t-358 -108q-106 0 -181 21l54 256q76 -31 149 -31q135 0 135 84q0 63 -116 150q-44 33 -79 96q-36 63 -36 143q0 154 118 249
t341 95q94 0 172 -12l-58 -235q-61 18 -125 18z" />
    <glyph glyph-name="Ydieresis" unicode="&#x178;" horiz-adv-x="1159" 
d="M1341 1382l-602 -899l-92 -483h-311l92 481l-254 901h330l88 -352q29 -117 45 -221h4q27 53 152 250l204 323h344zM565 1759q57 0 96 -40t39 -98t-42 -101t-100 -43t-97 40t-39 98t43 101t100 43zM1139 1621q0 -58 -43 -101q-42 -43 -100 -43t-97 40t-39 98t43 101
t101 43t96 -40q39 -40 39 -98z" />
    <glyph glyph-name="Zcaron" unicode="&#x17d;" horiz-adv-x="1067" 
d="M713 295h239l-55 -295h-893l47 250l559 743q39 49 92 107q-74 -4 -208 -4h-267l54 286h868l-49 -260l-582 -753q-41 -49 -67 -78q29 4 262 4zM1141 1634l-363 -180l-321 178l80 148l262 -117l288 117z" />
    <glyph glyph-name="zcaron" unicode="&#x17e;" horiz-adv-x="903" 
d="M969 1415l-379 -282l-275 282l131 141l183 -161l241 161zM649 287h133l-53 -287h-725l43 223l424 518q-53 -4 -176 -4h-139l55 281h707l-46 -223l-413 -510q33 2 190 2z" />
    <glyph glyph-name="florin" unicode="&#x192;" 
d="M989 1186q-76 0 -125 -46t-78 -155l-53 -201h281l-37 -241h-303l-109 -420q-59 -233 -196 -343t-365 -110q-102 0 -184 21l59 264q102 -29 175 -29t122 46t78 153l111 418h-234l37 241h256l57 215q59 223 193 333t362 110q89 -1 185 -21l-64 -266q-92 31 -168 31z" />
    <glyph glyph-name="circumflex" unicode="&#x2c6;" horiz-adv-x="845" 
d="M893 1274l-131 -141l-182 161l-242 -161l-98 141l378 282z" />
    <glyph glyph-name="caron" unicode="&#x2c7;" horiz-adv-x="845" 
d="M911 1415l-379 -282l-274 282l131 141l182 -161l242 161z" />
    <glyph glyph-name="breve" unicode="&#x2d8;" horiz-adv-x="710" 
d="M511 1149q-148 0 -209 97q-60 97 -42 243h201q-14 -111 77 -111t103 111h207q-16 -147 -102 -243t-235 -97z" />
    <glyph glyph-name="dotaccent" unicode="&#x2d9;" horiz-adv-x="579" 
d="M639 1326q0 -77 -60 -133q-59 -56 -139 -56t-131 51t-51 127t61 133t139 57t130 -51q51 -51 51 -128z" />
    <glyph glyph-name="ring" unicode="&#x2da;" horiz-adv-x="710" 
d="M627 1313q0 43 -28 73t-72 29q-45 0 -75 -33q-30 -32 -30 -74t28 -72t70 -30t75 32q32 32 32 75zM534 1577q116 -1 192 -73t77 -187q0 -115 -86 -193t-202 -78q-117 0 -193 72t-76 186t86 194q86 79 202 79z" />
    <glyph glyph-name="ogonek" unicode="&#x2db;" horiz-adv-x="671" 
d="M221 -197q1 -45 61 -45t111 58l103 -146q-141 -145 -328 -145q-125 0 -184 56q-60 57 -60 137t49 154t125 128h320q-197 -92 -197 -197z" />
    <glyph glyph-name="tilde" unicode="&#x2dc;" horiz-adv-x="899" 
d="M713 1167q-76 -1 -144 49t-96 50q-63 0 -113 -90l-141 110q104 199 273 199q76 0 144 -49t95 -50q66 0 115 91l139 -111q-98 -199 -272 -199z" />
    <glyph glyph-name="hungarumlaut" unicode="&#x2dd;" horiz-adv-x="1026" 
d="M733 1444l-336 -311l-135 120l311 338zM1165 1411l-360 -278l-129 122l342 316z" />
    <glyph glyph-name="Delta" unicode="&#x394;" horiz-adv-x="1538" 
d="M1022 287l-143 731l-424 -731h567zM1415 0h-1450l848 1434h299z" />
    <glyph glyph-name="Omega" unicode="&#x3a9;" horiz-adv-x="1566" 
d="M1454 891q0 -197 -85 -376t-253 -282h236l-45 -233h-549l41 217q154 86 249 268t95 369q0 135 -65 217q-64 82 -192 82t-232 -95q-104 -96 -150 -228q-47 -132 -47 -271q0 -221 164 -342l-43 -217h-547l43 233h248q-154 135 -154 363q0 324 222 568t546 245
q242 0 380 -134t138 -384z" />
    <glyph glyph-name="mu" unicode="&#x3bc;" horiz-adv-x="1280" 
d="M723 135q0 37 14 88h-2q-55 -106 -143 -173t-178 -66q-53 0 -82 32l-49 -501h-324l287 1503h305l-119 -631q-29 -141 45 -141q80 0 175 135t128 309l62 328h305l-125 -664q-12 -59 -12 -91t8 -42t26 -10q41 0 84 49l82 -143q-123 -139 -303 -140q-96 0 -140 38t-44 120z
" />
    <glyph glyph-name="pi" unicode="&#x3c0;" horiz-adv-x="1323" 
d="M924 -25q-128 0 -173 66q-46 66 -22 201l100 522h-235l-148 -764h-282l147 764h-182l49 254h1163l-49 -254h-180l-72 -369q-24 -131 -12 -164t66 -33t92 13l-21 -211q-113 -25 -241 -25z" />
    <glyph glyph-name="endash" unicode="&#x2013;" 
d="M1184 748l-54 -275h-1126l53 275h1127z" />
    <glyph glyph-name="emdash" unicode="&#x2014;" horiz-adv-x="2048" 
d="M1888 748l-51 -275h-1616l51 275h1616z" />
    <glyph glyph-name="quoteleft" unicode="&#x2018;" horiz-adv-x="565" 
d="M680 1419q-125 -104 -155 -178t20 -139q57 -82 6 -184t-165 -102t-165 97q-71 135 29 309t319 326z" />
    <glyph glyph-name="quoteright" unicode="&#x2019;" horiz-adv-x="565" 
d="M449 1524q113 0 165 -101q72 -133 -29 -307t-321 -323l-110 127q125 104 154 178q30 74 -22 148t-1 176t164 102z" />
    <glyph glyph-name="quotesinglbase" unicode="&#x201a;" horiz-adv-x="565" 
d="M233 352q111 0 162 -100q71 -134 -29 -308t-319 -323l-110 129q125 102 154 177q30 75 -17 141q-33 59 -28 121q5 63 58 113t129 50z" />
    <glyph glyph-name="quotedblleft" unicode="&#x201c;" horiz-adv-x="1042" 
d="M680 1425q-125 -104 -155 -178t20 -139q57 -84 6 -184t-165 -100t-165 98q-73 135 29 309t319 323zM1176 1425q-125 -104 -155 -178t19 -139q56 -84 6 -184t-164 -100t-165 98q-73 135 29 309t319 323z" />
    <glyph glyph-name="quotedblright" unicode="&#x201d;" horiz-adv-x="1042" 
d="M449 1536q113 0 165 -100q72 -134 -29 -308t-321 -323l-110 127q125 104 154 179q30 75 -22 149t-1 174q51 102 164 102zM946 1536q111 0 164 -100q70 -134 -30 -308t-320 -323l-111 127q125 104 155 179t-18 140q-32 59 -26 121t58 114q52 50 128 50z" />
    <glyph glyph-name="quotedblbase" unicode="&#x201e;" horiz-adv-x="1042" 
d="M233 352q111 0 162 -100q71 -134 -29 -308t-319 -323l-110 129q125 102 154 177q30 75 -17 141q-33 59 -28 121q5 63 58 113t129 50zM729 352q111 0 164 -100q69 -134 -31 -308t-319 -323l-111 129q125 102 155 177t-18 141q-33 59 -26 121q6 63 58 113t128 50z" />
    <glyph glyph-name="dagger" unicode="&#x2020;" horiz-adv-x="929" 
d="M1018 1300l-45 -239h-262l16 -168l-154 -528h-243l47 528l80 168h-264l47 239h262l4 279h350l-100 -279h262z" />
    <glyph glyph-name="daggerdbl" unicode="&#x2021;" horiz-adv-x="929" 
d="M506 1339v240h350l-90 -240h260l-45 -239h-260l16 -142l-71 -143h256l-45 -240h-259l5 -239h-355l92 239h-260l45 240h261l-19 143l74 142h-260l45 239h260z" />
    <glyph glyph-name="bullet" unicode="&#x2022;" horiz-adv-x="868" 
d="M803 613q1 -140 -101 -242q-102 -103 -242 -103t-236 98t-97 237q0 141 100 243q99 102 241 102t239 -97q96 -98 96 -238z" />
    <glyph glyph-name="ellipsis" unicode="&#x2026;" horiz-adv-x="1529" 
d="M399 162q0 -76 -54 -131t-129 -55t-126 52t-51 129t54 131t129 54t126 -52t51 -128zM893 162q0 -76 -55 -131t-130 -55t-125 52q-51 52 -51 129t54 131t130 54q75 0 126 -52t51 -128zM1386 162q0 -76 -55 -131t-130 -55t-126 52t-51 129t55 131t130 54t126 -52t51 -128z
" />
    <glyph glyph-name="perthousand" unicode="&#x2030;" horiz-adv-x="2166" 
d="M1184 367q0 74 -60 73q-59 0 -93 -66t-34 -136q-1 -72 59 -72t94 64t34 137zM575 1092q0 74 -59 73q-57 1 -92 -65t-35 -138q-1 -72 59 -71q60 0 94 63q33 64 33 138zM1855 367q0 74 -59 73q-59 0 -93 -66t-34 -136q-1 -72 59 -72t94 63q33 64 33 138zM1401 387
q0 -186 -111 -300t-244 -114q-266 0 -266 248q0 180 111 295t242 115q268 0 268 -244zM1497 1225l-1274 -1270l-153 149l1276 1270zM793 1112q0 -184 -110 -298t-244 -114q-267 0 -267 248q0 178 111 294t241 116q268 0 269 -246zM2073 387q0 -186 -111 -300t-244 -114
q-266 0 -266 248q0 180 111 295t241 115q130 1 200 -61q69 -62 69 -183z" />
    <glyph glyph-name="guilsinglleft" unicode="&#x2039;" horiz-adv-x="626" 
d="M616 901l-229 -303l119 -307l-254 -105l-158 426l297 402z" />
    <glyph glyph-name="guilsinglright" unicode="&#x203a;" horiz-adv-x="626" 
d="M594 588l-297 -402l-223 113l227 303l-119 305l256 107z" />
    <glyph glyph-name="fraction" unicode="&#x2044;" horiz-adv-x="897" 
d="M1217 1266l-1240 -1346l-190 174l1239 1346z" />
    <glyph glyph-name="uni20AC" unicode="&#x20ac;" 
d="M901 1110q-188 0 -291 -190h297l-35 -189h-340q-14 -49 -26 -129h342l-35 -188h-315q8 -98 60 -144t165 -47q113 0 242 53l39 -237q-162 -66 -359 -66q-469 0 -471 441h-158l35 188h137q14 86 27 129h-139l37 189h163q195 438 672 438q136 0 277 -53l-105 -248
q-92 53 -219 53z" />
    <glyph glyph-name="trademark" unicode="&#x2122;" horiz-adv-x="1370" 
d="M678 1382l-35 -188h-121l-76 -387h-210l73 387h-129l37 188h461zM1403 1382l-12 -575h-224l11 213l6 88l-29 -84l-92 -217h-191l-10 223l2 78l-18 -74l-72 -227h-201l199 575h250l14 -208v-78l25 73l92 213h250z" />
    <glyph glyph-name="partialdiff" unicode="&#x2202;" horiz-adv-x="1269" 
d="M813 526q0 66 -41 106t-134 40t-160 -78t-66 -186q0 -70 40 -111t130 -41t160 80q71 80 71 190zM1239 944q0 -242 -86 -456q-86 -212 -259 -357q-174 -145 -376 -145t-306 103q-103 103 -103 261q0 250 169 418t408 168q74 0 140 -24t96 -68v139q-20 123 -114 194
t-241 70l88 264q270 -1 427 -163t157 -404z" />
    <glyph glyph-name="product" unicode="&#x220f;" horiz-adv-x="1617" 
d="M1698 1495l-51 -264h-183l-327 -1716h-283l328 1716h-484l-327 -1716h-287l328 1716h-185l52 264h1419z" />
    <glyph glyph-name="summation" unicode="&#x2211;" horiz-adv-x="1259" 
d="M1296 1495l-49 -264h-637l389 -727l-665 -719h670l-54 -270h-1052l47 243l704 766l-389 725l49 246h987z" />
    <glyph glyph-name="minus" unicode="&#x2212;" 
d="M1106 748l-51 -275h-973l51 275h973z" />
    <glyph glyph-name="radical" unicode="&#x221a;" horiz-adv-x="1253" 
d="M1458 1552l-756 -1552h-358l-102 784h-168l45 234h416l49 -488q10 -131 8 -176h2q37 102 68 170l454 1028h342z" />
    <glyph glyph-name="infinity" unicode="&#x221e;" horiz-adv-x="2004" 
d="M554 739q-73 0 -120 -43t-47 -98q0 -113 109 -113q73 0 278 131q-147 123 -220 123zM1667 628q0 113 -113 111q-80 0 -282 -133q139 -121 219 -121t128 44q48 43 48 99zM1964 694q0 -201 -142 -341t-378 -140q-182 0 -440 209q-326 -209 -528 -209t-294 87t-92 232
q0 220 151 350t349 130t461 -217q338 217 533 217t288 -90q92 -91 92 -228z" />
    <glyph glyph-name="integral" unicode="&#x222b;" horiz-adv-x="702" 
d="M708 1245q-46 0 -79 -45q-33 -44 -60 -184t-73 -453t-84 -514q-58 -311 -162 -434t-295 -123q-61 0 -117 12l53 271q33 -13 85 -13t86 48t60 184q26 137 69 444q44 307 85 520q58 308 172 432t300 123q55 0 102 -12l-51 -268q-45 12 -91 12z" />
    <glyph glyph-name="approxequal" unicode="&#x2248;" 
d="M360 313q-96 0 -204 -88l-103 207q164 141 303 141q94 0 206 -59t206 -59t182 84l99 -207q-68 -60 -153 -98t-169 -38t-196 59q-112 58 -171 58zM823 631q-81 0 -193 58q-112 59 -200 59t-194 -86l-99 204q156 141 318 142q96 0 211 -60t163 -59q90 0 199 90l100 -207
q-137 -141 -305 -141z" />
    <glyph glyph-name="notequal" unicode="&#x2260;" 
d="M1133 942l-48 -250h-299l-98 -168h365l-47 -250h-463l-129 -223h-289l131 223h-203l47 250h301l99 168h-367l47 250h463l131 221h287l-129 -221h201z" />
    <glyph glyph-name="lessequal" unicode="&#x2264;" 
d="M942 260l-51 -260h-828l50 260h829zM1083 1184l-497 -326l383 -338l-224 -198l-561 552l721 523z" />
    <glyph glyph-name="greaterequal" unicode="&#x2265;" 
d="M942 260l-51 -260h-828l50 260h829zM1087 842l-720 -520l-177 213l498 325l-385 338l223 199z" />
    <glyph glyph-name="lozenge" unicode="&#x25ca;" horiz-adv-x="1265" 
d="M952 682l-207 379l-325 -363l198 -381zM1288 688l-639 -708h-192l-375 712l643 711h190z" />
    <glyph glyph-name="fi" unicode="&#xfb01;" horiz-adv-x="1206" 
d="M-94 -502q-94 0 -180 19l71 256q157 -41 223 31q43 46 68 173l150 801h-154l49 240h152l4 31q78 465 596 464q165 1 325 -36l-100 -260q-111 39 -238 38q-242 0 -274 -192l-8 -45h606l-195 -1018h-305l148 778h-301l-150 -805q-90 -475 -487 -475z" />
    <glyph glyph-name="fl" unicode="&#xfb02;" horiz-adv-x="1204" 
d="M817 1257q-180 0 -213 -161l-14 -78h184l-49 -240h-182l-150 -805q-90 -475 -487 -475q-94 0 -180 19l71 256q157 -41 223 31q43 46 68 173l150 801h-154l49 240h150l20 102q74 393 561 393q205 1 420 -38l-280 -1475h-306l238 1247q-49 10 -119 10z" />
    <glyph glyph-name="Euro" 
d="M901 1110q-188 0 -291 -190h297l-35 -189h-340q-14 -49 -26 -129h342l-35 -188h-315q8 -98 60 -144t165 -47q113 0 242 53l39 -237q-162 -66 -359 -66q-469 0 -471 441h-158l35 188h137q14 86 27 129h-139l37 189h163q195 438 672 438q136 0 277 -53l-105 -248
q-92 53 -219 53z" />
    <glyph glyph-name="apple" horiz-adv-x="2140" 
d="M23 793l337 -37q-6 -74 0 -144l-337 -37q-12 107 0 218zM1083 727q9 0 9 10t-2 11q3 -11 -7 -21zM1079 731q6 0 4 4t2 4v2q-6 0 -4 -4t-2 -4v-2zM1069 731q2 0 6 4l-2 -4h2l2 10q-4 0 -8 -4q-2 -6 0 -6zM1063 738q0 -10 2 -11q-4 10 6 21q-8 0 -8 -10zM1059 733
q-2 0 -4 2q4 2 6 4v2q-6 2 -8 -6q0 -6 6 -4v2zM1053 741h-2q-4 -12 -4 -6l2 6h-2l-3 -6v-4q4 -2 7 4zM1042 731v2h-4l4 12h-2l-4 -12q0 -2 2 -2h4zM1315 -115l-23 54l-469 -121l45 -107h406l18 47l-6 17l-137 -35l-33 96zM1315 59l-23 54l-471 -121l25 -51zM1315 264h-490
v-86l27 -63l463 118v31zM1070 670q-44 0 -75 -2l29 -273h94l25 273q-29 2 -73 2zM1070 813q142 0 292 -43q16 -4 20 -45t-6 -76t-38 -25t-78 23l-27 -252h88q131 113 131 280t-112 279t-270 113q-158 0 -270 -113q-112 -114 -112 -280t133 -279h88l-28 252q-41 -8 -82 -26
q-20 -6 -32 28q-11 35 -6 76t21 45q146 43 288 43zM1616 690q0 -219 -133 -364v-168l-33 -8l68 -158l-66 -17l66 -153l-70 -17l20 -49l-65 -153h-125q-8 -43 -66 -73t-141 -30q-82 0 -141 30t-66 73h-125l-116 280l63 19l-65 157l71 19l-37 90v162q-129 156 -129 368
t159 371q159 160 385 160t386 -160t160 -379zM2120 791q10 -106 0 -216l-332 37q10 72 0 144zM1524 1239l207 256q88 -72 151 -152l-256 -206q-43 55 -102 102zM1145 1389q-74 10 -146 0l-36 323q96 14 215 0zM258 1346q76 94 152 151l213 -260q-51 -41 -101 -102z" />
    <glyph glyph-name="Grave" horiz-adv-x="755" 
d="M868 1622l-69 -168l-453 105l92 217z" />
    <glyph glyph-name="Acute" horiz-adv-x="794" 
d="M862 1559l-473 -105l-31 168l465 154z" />
    <glyph glyph-name="Dieresis" horiz-adv-x="1095" 
d="M531 1759q59 0 97 -40t38 -98t-42 -101t-100 -43t-96 40q-39 40 -39 98t42 101t100 43zM1104 1621q0 -58 -42 -101t-100 -43t-98 40q-39 40 -39 98t43 101q42 43 100 43t97 -40t39 -98z" />
    <glyph glyph-name="Circumflex" horiz-adv-x="845" 
d="M979 1602l-80 -148l-262 117l-289 -117l-53 145l362 181z" />
    <glyph glyph-name="Tilde" horiz-adv-x="899" 
d="M803 1481q-78 0 -148 45t-98 45q-63 0 -113 -84l-147 102q106 180 276 180q78 0 149 -45t99 -45q59 0 113 84l145 -102q-104 -180 -276 -180z" />
    <glyph glyph-name="Caron" horiz-adv-x="845" 
d="M985 1634l-362 -180l-322 178l80 148l262 -117l289 117z" />
  </font>
</defs>
</svg>
